<mxfile host="app.diagrams.net" modified="2021-03-25T11:35:48.448Z" agent="5.0 (Windows NT 10.0; Win64; x64) AppleWebKit/537.36 (KHTML, like Gecko) Chrome/89.0.4389.90 Safari/537.36 Edg/89.0.774.57" etag="83WixmkMEJXz7MakIGBw" version="14.4.2" type="github">
  <diagram name="Page-1" id="e7e014a7-5840-1c2e-5031-d8a46d1fe8dd">
    <mxGraphModel dx="1422" dy="794" grid="1" gridSize="10" guides="1" tooltips="1" connect="1" arrows="1" fold="1" page="1" pageScale="1" pageWidth="1169" pageHeight="826" background="#ffffff" math="0" shadow="0">
      <root>
        <mxCell id="0" />
        <mxCell id="1" parent="0" />
        <mxCell id="2" value="SDK" style="swimlane;whiteSpace=wrap" parent="1" vertex="1">
          <mxGeometry x="164.5" y="128" width="275.5" height="570" as="geometry" />
        </mxCell>
        <mxCell id="5" value="" style="ellipse;shape=startState;fillColor=#000000;strokeColor=#ff0000;" parent="2" vertex="1">
          <mxGeometry x="110" y="32" width="30" height="30" as="geometry" />
        </mxCell>
        <mxCell id="6" value="" style="edgeStyle=elbowEdgeStyle;elbow=horizontal;verticalAlign=bottom;endArrow=open;endSize=8;strokeColor=#FF0000;endFill=1;rounded=0" parent="2" source="5" target="7" edge="1">
          <mxGeometry x="100" y="40" as="geometry">
            <mxPoint x="115" y="110" as="targetPoint" />
          </mxGeometry>
        </mxCell>
        <mxCell id="7" value="请求创建UDP代理通道" style="fillColor=#B9E0A5;" parent="2" vertex="1">
          <mxGeometry x="60" y="110" width="130" height="50" as="geometry" />
        </mxCell>
        <mxCell id="9" value="" style="endArrow=open;strokeColor=#FF0000;endFill=1;rounded=0;entryX=0.5;entryY=0;entryDx=0;entryDy=0;" parent="2" source="7" target="Rcg7ZFwTA16QknF7ljCe-42" edge="1">
          <mxGeometry relative="1" as="geometry">
            <mxPoint x="125" y="232" as="targetPoint" />
          </mxGeometry>
        </mxCell>
        <mxCell id="10" value="收发自定义消息" style="strokeColor=#0000FF;fillColor=#FFFFCC;" parent="2" vertex="1">
          <mxGeometry x="70" y="342" width="110" height="50" as="geometry" />
        </mxCell>
        <mxCell id="11" value="" style="endArrow=open;strokeColor=#FF0000;endFill=1;rounded=0;exitX=0.5;exitY=1;exitDx=0;exitDy=0;" parent="2" source="Rcg7ZFwTA16QknF7ljCe-42" target="10" edge="1">
          <mxGeometry relative="1" as="geometry">
            <mxPoint x="125" y="282" as="sourcePoint" />
          </mxGeometry>
        </mxCell>
        <mxCell id="12" value="" style="edgeStyle=elbowEdgeStyle;elbow=horizontal;strokeColor=#FF0000;endArrow=open;endFill=1;rounded=0;exitX=0;exitY=0.5;exitDx=0;exitDy=0;" parent="2" source="Rcg7ZFwTA16QknF7ljCe-42" target="7" edge="1">
          <mxGeometry width="100" height="100" relative="1" as="geometry">
            <mxPoint x="55.5" y="262" as="sourcePoint" />
            <mxPoint x="260" y="190" as="targetPoint" />
            <Array as="points">
              <mxPoint x="30" y="250" />
            </Array>
          </mxGeometry>
        </mxCell>
        <mxCell id="Rcg7ZFwTA16QknF7ljCe-42" value="创建响应" style="rhombus;whiteSpace=wrap;html=1;" vertex="1" parent="2">
          <mxGeometry x="60" y="222" width="130" height="80" as="geometry" />
        </mxCell>
        <mxCell id="Rcg7ZFwTA16QknF7ljCe-51" value="成功" style="text;html=1;strokeColor=none;fillColor=none;align=center;verticalAlign=middle;whiteSpace=wrap;rounded=0;" vertex="1" parent="2">
          <mxGeometry x="125.5" y="312" width="40" height="20" as="geometry" />
        </mxCell>
        <mxCell id="Rcg7ZFwTA16QknF7ljCe-53" value="失败回调" style="text;html=1;strokeColor=none;fillColor=none;align=center;verticalAlign=middle;whiteSpace=wrap;rounded=0;" vertex="1" parent="2">
          <mxGeometry x="30" y="192" width="60" height="20" as="geometry" />
        </mxCell>
        <mxCell id="3" value="云服务" style="swimlane;whiteSpace=wrap" parent="1" vertex="1">
          <mxGeometry x="440" y="128" width="284.5" height="570" as="geometry" />
        </mxCell>
        <mxCell id="13" value="" style="ellipse;shape=startState;fillColor=#000000;strokeColor=#ff0000;" parent="3" vertex="1">
          <mxGeometry x="130" y="40" width="30" height="30" as="geometry" />
        </mxCell>
        <mxCell id="14" value="" style="edgeStyle=elbowEdgeStyle;elbow=horizontal;verticalAlign=bottom;endArrow=open;endSize=8;strokeColor=#FF0000;endFill=1;rounded=0" parent="3" target="15" edge="1">
          <mxGeometry x="110" y="20" as="geometry">
            <mxPoint x="125" y="90" as="targetPoint" />
            <mxPoint x="145" y="70" as="sourcePoint" />
          </mxGeometry>
        </mxCell>
        <mxCell id="15" value="创建UDP代理" style="fillColor=#B9E0A5;" parent="3" vertex="1">
          <mxGeometry x="90" y="110" width="110" height="50" as="geometry" />
        </mxCell>
        <mxCell id="16" value="UDP代理" style="strokeColor=#0000FF;fillColor=#FFFFCC;" parent="3" vertex="1">
          <mxGeometry x="90" y="342" width="110" height="50" as="geometry" />
        </mxCell>
        <mxCell id="17" value="" style="endArrow=open;strokeColor=#FF0000;endFill=1;rounded=0" parent="3" source="15" target="16" edge="1">
          <mxGeometry relative="1" as="geometry" />
        </mxCell>
        <mxCell id="Rcg7ZFwTA16QknF7ljCe-57" value="云端应用UDP server port" style="text;html=1;strokeColor=none;fillColor=none;align=center;verticalAlign=middle;whiteSpace=wrap;rounded=0;" vertex="1" parent="3">
          <mxGeometry x="-50" y="110" width="99.5" height="20" as="geometry" />
        </mxCell>
        <mxCell id="4" value="云端应用" style="swimlane;whiteSpace=wrap" parent="1" vertex="1">
          <mxGeometry x="724.5" y="128" width="280" height="570" as="geometry" />
        </mxCell>
        <mxCell id="33" value="UDP server" style="strokeColor=#0000FF;fillColor=#FFFFCC;" parent="4" vertex="1">
          <mxGeometry x="85" y="342" width="110" height="50" as="geometry" />
        </mxCell>
        <mxCell id="38" value="" style="ellipse;shape=endState;fillColor=#000000;strokeColor=#ff0000" parent="4" vertex="1">
          <mxGeometry x="125" y="42" width="30" height="30" as="geometry" />
        </mxCell>
        <mxCell id="Rcg7ZFwTA16QknF7ljCe-60" value="创建UDP server" style="fillColor=#E6D0DE;" vertex="1" parent="4">
          <mxGeometry x="85" y="112" width="110" height="50" as="geometry" />
        </mxCell>
        <mxCell id="Rcg7ZFwTA16QknF7ljCe-61" value="" style="edgeStyle=elbowEdgeStyle;elbow=horizontal;verticalAlign=bottom;endArrow=open;endSize=8;strokeColor=#FF0000;endFill=1;rounded=0;exitX=0.5;exitY=1;exitDx=0;exitDy=0;" edge="1" parent="4" source="38" target="Rcg7ZFwTA16QknF7ljCe-60">
          <mxGeometry x="-164.5" y="30" as="geometry">
            <mxPoint x="310.5" y="248" as="targetPoint" />
            <mxPoint x="310.5" y="208" as="sourcePoint" />
          </mxGeometry>
        </mxCell>
        <mxCell id="Rcg7ZFwTA16QknF7ljCe-63" value="" style="endArrow=open;strokeColor=#FF0000;endFill=1;rounded=0;exitX=0.5;exitY=1;exitDx=0;exitDy=0;" edge="1" parent="4" source="Rcg7ZFwTA16QknF7ljCe-60" target="33">
          <mxGeometry relative="1" as="geometry">
            <mxPoint x="310.5" y="298" as="sourcePoint" />
            <mxPoint x="310.5" y="480" as="targetPoint" />
          </mxGeometry>
        </mxCell>
        <mxCell id="Rcg7ZFwTA16QknF7ljCe-45" value="" style="endArrow=open;strokeColor=#FF0000;endFill=1;rounded=0;exitX=1;exitY=0.5;exitDx=0;exitDy=0;entryX=0;entryY=0.5;entryDx=0;entryDy=0;" edge="1" parent="1" source="7" target="15">
          <mxGeometry relative="1" as="geometry">
            <mxPoint x="354.5" y="500.9347826086955" as="sourcePoint" />
            <mxPoint x="474.5" y="492.06521739130426" as="targetPoint" />
          </mxGeometry>
        </mxCell>
        <mxCell id="Rcg7ZFwTA16QknF7ljCe-47" value="" style="endArrow=classic;startArrow=classic;html=1;entryX=0;entryY=0.5;entryDx=0;entryDy=0;exitX=1;exitY=0.5;exitDx=0;exitDy=0;fontColor=#0000FF;labelBackgroundColor=#0000FF;strokeColor=#0000FF;" edge="1" parent="1" source="10" target="16">
          <mxGeometry width="50" height="50" relative="1" as="geometry">
            <mxPoint x="350" y="520" as="sourcePoint" />
            <mxPoint x="400" y="470" as="targetPoint" />
          </mxGeometry>
        </mxCell>
        <mxCell id="Rcg7ZFwTA16QknF7ljCe-46" value="" style="endArrow=classic;startArrow=classic;html=1;entryX=0;entryY=0.5;entryDx=0;entryDy=0;exitX=1;exitY=0.5;exitDx=0;exitDy=0;strokeColor=#0000FF;" edge="1" parent="1" source="16" target="33">
          <mxGeometry width="50" height="50" relative="1" as="geometry">
            <mxPoint x="644.5" y="500" as="sourcePoint" />
            <mxPoint x="694.5" y="450" as="targetPoint" />
          </mxGeometry>
        </mxCell>
      </root>
    </mxGraphModel>
  </diagram>
</mxfile>
